<svg xmlns="http://www.w3.org/2000/svg" xmlns:xlink="http://www.w3.org/1999/xlink" width="500" zoomAndPan="magnify" viewBox="0 0 375 374.999991" height="500" preserveAspectRatio="xMidYMid meet" version="1.0"><defs><g/></defs><path fill="#ffffff" d="M 18.566406 356.441406 L 356.433594 356.441406 L 356.433594 18.574219 L 18.566406 18.574219 Z M 375 375.007812 L 0 375.007812 L 0 0.0078125 L 375 0.0078125 L 375 375.007812 " fill-opacity="1" fill-rule="nonzero"/><g fill="#ffffff" fill-opacity="1"><g transform="translate(29.593406, 306.654382)"><g><path d="M 71.203125 -236.84375 L 71.203125 0 L 17.21875 0 L 17.21875 -236.84375 Z M 71.203125 -236.84375 "/></g></g></g><g fill="#ffffff" fill-opacity="1"><g transform="translate(93.612727, 306.654382)"><g><path d="M 6.609375 -118.5625 C 6.609375 -152.820312 18.28125 -181.816406 41.625 -205.546875 C 64.976562 -229.273438 93.113281 -241.140625 126.03125 -241.140625 C 159.132812 -241.140625 187.265625 -229.320312 210.421875 -205.6875 C 233.585938 -182.050781 245.171875 -153.007812 245.171875 -118.5625 C 245.171875 -83.925781 233.78125 -54.785156 211 -31.140625 C 188.226562 -7.503906 159.90625 4.3125 126.03125 4.3125 C 91.382812 4.3125 62.816406 -7.410156 40.328125 -30.859375 C 17.847656 -54.304688 6.609375 -83.539062 6.609375 -118.5625 Z M 64.875 -118.5625 C 64.875 -106.125 66.785156 -94.785156 70.609375 -84.546875 C 74.441406 -74.304688 81.144531 -65.644531 90.71875 -58.5625 C 100.289062 -51.476562 112.0625 -47.9375 126.03125 -47.9375 C 146.125 -47.9375 161.289062 -54.828125 171.53125 -68.609375 C 181.769531 -82.390625 186.890625 -99.039062 186.890625 -118.5625 C 186.890625 -137.894531 181.671875 -154.5 171.234375 -168.375 C 160.804688 -182.25 145.738281 -189.1875 126.03125 -189.1875 C 106.507812 -189.1875 91.4375 -182.25 80.8125 -168.375 C 70.1875 -154.5 64.875 -137.894531 64.875 -118.5625 Z M 64.875 -118.5625 "/></g></g></g></svg>